<mxfile host="65bd71144e">
    <diagram id="bfl7gv7dEzhj_uujE17H" name="Page-1">
        <mxGraphModel dx="907" dy="482" grid="1" gridSize="10" guides="1" tooltips="1" connect="1" arrows="1" fold="1" page="1" pageScale="1" pageWidth="850" pageHeight="1100" math="0" shadow="0">
            <root>
                <mxCell id="0"/>
                <mxCell id="1" parent="0"/>
                <mxCell id="2" value="JoyStick" style="html=1;strokeColor=none;fillColor=#0079D6;labelPosition=center;verticalLabelPosition=middle;verticalAlign=top;align=center;fontSize=12;outlineConnect=0;spacingTop=-6;fontColor=#FFFFFF;sketch=0;shape=mxgraph.sitemap.game;" vertex="1" parent="1">
                    <mxGeometry x="200" y="80" width="390" height="240" as="geometry"/>
                </mxCell>
                <mxCell id="31" style="edgeStyle=none;html=1;exitX=1;exitY=0.25;exitDx=0;exitDy=0;entryX=0;entryY=0.5;entryDx=0;entryDy=0;" edge="1" parent="1" source="3" target="30">
                    <mxGeometry relative="1" as="geometry"/>
                </mxCell>
                <mxCell id="3" value="" style="rounded=1;whiteSpace=wrap;html=1;" vertex="1" parent="1">
                    <mxGeometry x="430" y="150" width="40" height="10" as="geometry"/>
                </mxCell>
                <mxCell id="35" style="edgeStyle=none;html=1;exitX=0;exitY=0.5;exitDx=0;exitDy=0;entryX=1;entryY=0.5;entryDx=0;entryDy=0;" edge="1" parent="1" source="5" target="33">
                    <mxGeometry relative="1" as="geometry"/>
                </mxCell>
                <mxCell id="5" value="" style="rounded=1;whiteSpace=wrap;html=1;" vertex="1" parent="1">
                    <mxGeometry x="320" y="150" width="40" height="10" as="geometry"/>
                </mxCell>
                <mxCell id="29" style="edgeStyle=none;html=1;exitX=1;exitY=0.25;exitDx=0;exitDy=0;entryX=0;entryY=0.5;entryDx=0;entryDy=0;" edge="1" parent="1" source="7" target="28">
                    <mxGeometry relative="1" as="geometry"/>
                </mxCell>
                <mxCell id="7" value="" style="rounded=1;whiteSpace=wrap;html=1;" vertex="1" parent="1">
                    <mxGeometry x="430" y="130" width="40" height="10" as="geometry"/>
                </mxCell>
                <mxCell id="34" style="edgeStyle=none;html=1;exitX=0;exitY=0.25;exitDx=0;exitDy=0;entryX=1;entryY=0.75;entryDx=0;entryDy=0;" edge="1" parent="1" source="13" target="32">
                    <mxGeometry relative="1" as="geometry"/>
                </mxCell>
                <mxCell id="13" value="" style="rounded=1;whiteSpace=wrap;html=1;" vertex="1" parent="1">
                    <mxGeometry x="320" y="130" width="40" height="10" as="geometry"/>
                </mxCell>
                <mxCell id="51" style="edgeStyle=none;html=1;exitX=0;exitY=1;exitDx=0;exitDy=0;entryX=0.5;entryY=0;entryDx=0;entryDy=0;" edge="1" parent="1" source="14" target="44">
                    <mxGeometry relative="1" as="geometry"/>
                </mxCell>
                <mxCell id="14" value="" style="ellipse;whiteSpace=wrap;html=1;aspect=fixed;" vertex="1" parent="1">
                    <mxGeometry x="360" y="230" width="30" height="30" as="geometry"/>
                </mxCell>
                <mxCell id="53" style="edgeStyle=none;html=1;exitX=1;exitY=1;exitDx=0;exitDy=0;entryX=0.5;entryY=0;entryDx=0;entryDy=0;" edge="1" parent="1" source="16" target="52">
                    <mxGeometry relative="1" as="geometry"/>
                </mxCell>
                <mxCell id="16" value="" style="ellipse;whiteSpace=wrap;html=1;aspect=fixed;" vertex="1" parent="1">
                    <mxGeometry x="400" y="230" width="30" height="30" as="geometry"/>
                </mxCell>
                <mxCell id="37" style="edgeStyle=none;html=1;exitX=1;exitY=0;exitDx=0;exitDy=0;entryX=0;entryY=0.5;entryDx=0;entryDy=0;" edge="1" parent="1" source="17" target="36">
                    <mxGeometry relative="1" as="geometry"/>
                </mxCell>
                <mxCell id="17" value="" style="ellipse;whiteSpace=wrap;html=1;aspect=fixed;" vertex="1" parent="1">
                    <mxGeometry x="430" y="180" width="20" height="20" as="geometry"/>
                </mxCell>
                <mxCell id="40" style="edgeStyle=none;html=1;exitX=1;exitY=0.5;exitDx=0;exitDy=0;entryX=0;entryY=0.5;entryDx=0;entryDy=0;" edge="1" parent="1" source="18" target="39">
                    <mxGeometry relative="1" as="geometry"/>
                </mxCell>
                <mxCell id="18" value="" style="ellipse;whiteSpace=wrap;html=1;aspect=fixed;" vertex="1" parent="1">
                    <mxGeometry x="450" y="200" width="20" height="20" as="geometry"/>
                </mxCell>
                <mxCell id="41" style="edgeStyle=none;html=1;exitX=1;exitY=1;exitDx=0;exitDy=0;entryX=0;entryY=0.5;entryDx=0;entryDy=0;" edge="1" parent="1" source="19" target="38">
                    <mxGeometry relative="1" as="geometry"/>
                </mxCell>
                <mxCell id="19" value="" style="ellipse;whiteSpace=wrap;html=1;aspect=fixed;" vertex="1" parent="1">
                    <mxGeometry x="435" y="220" width="20" height="20" as="geometry"/>
                </mxCell>
                <mxCell id="43" style="edgeStyle=none;html=1;exitX=0;exitY=0.5;exitDx=0;exitDy=0;entryX=0.5;entryY=1;entryDx=0;entryDy=0;" edge="1" parent="1" source="20" target="42">
                    <mxGeometry relative="1" as="geometry"/>
                </mxCell>
                <mxCell id="20" value="" style="ellipse;whiteSpace=wrap;html=1;aspect=fixed;" vertex="1" parent="1">
                    <mxGeometry x="415" y="200" width="20" height="20" as="geometry"/>
                </mxCell>
                <mxCell id="48" style="edgeStyle=none;html=1;exitX=0.5;exitY=0;exitDx=0;exitDy=0;entryX=1;entryY=0.5;entryDx=0;entryDy=0;" edge="1" parent="1" source="22" target="47">
                    <mxGeometry relative="1" as="geometry"/>
                </mxCell>
                <mxCell id="22" value="" style="whiteSpace=wrap;html=1;aspect=fixed;rotation=-45;" vertex="1" parent="1">
                    <mxGeometry x="340" y="180" width="20" height="20" as="geometry"/>
                </mxCell>
                <mxCell id="49" style="edgeStyle=none;html=1;exitX=0;exitY=0;exitDx=0;exitDy=0;entryX=1;entryY=0.25;entryDx=0;entryDy=0;" edge="1" parent="1" source="23" target="45">
                    <mxGeometry relative="1" as="geometry"/>
                </mxCell>
                <mxCell id="23" value="" style="whiteSpace=wrap;html=1;aspect=fixed;rotation=-45;" vertex="1" parent="1">
                    <mxGeometry x="320" y="200" width="20" height="20" as="geometry"/>
                </mxCell>
                <mxCell id="24" value="" style="whiteSpace=wrap;html=1;aspect=fixed;rotation=-45;" vertex="1" parent="1">
                    <mxGeometry x="360" y="200" width="20" height="20" as="geometry"/>
                </mxCell>
                <mxCell id="50" style="edgeStyle=none;html=1;exitX=0;exitY=0.5;exitDx=0;exitDy=0;entryX=1;entryY=0.25;entryDx=0;entryDy=0;" edge="1" parent="1" source="25" target="46">
                    <mxGeometry relative="1" as="geometry"/>
                </mxCell>
                <mxCell id="25" value="" style="whiteSpace=wrap;html=1;aspect=fixed;rotation=-45;" vertex="1" parent="1">
                    <mxGeometry x="340" y="220" width="20" height="20" as="geometry"/>
                </mxCell>
                <mxCell id="28" value="R2" style="rounded=0;whiteSpace=wrap;html=1;" vertex="1" parent="1">
                    <mxGeometry x="520" y="70" width="40" height="30" as="geometry"/>
                </mxCell>
                <mxCell id="30" value="R1" style="rounded=0;whiteSpace=wrap;html=1;" vertex="1" parent="1">
                    <mxGeometry x="520" y="110" width="40" height="30" as="geometry"/>
                </mxCell>
                <mxCell id="32" value="L2" style="rounded=0;whiteSpace=wrap;html=1;" vertex="1" parent="1">
                    <mxGeometry x="240" y="70" width="40" height="30" as="geometry"/>
                </mxCell>
                <mxCell id="33" value="L1" style="rounded=0;whiteSpace=wrap;html=1;" vertex="1" parent="1">
                    <mxGeometry x="240" y="110" width="40" height="30" as="geometry"/>
                </mxCell>
                <mxCell id="36" value="TOP" style="rounded=0;whiteSpace=wrap;html=1;" vertex="1" parent="1">
                    <mxGeometry x="520" y="160" width="40" height="30" as="geometry"/>
                </mxCell>
                <mxCell id="38" value="BOTTOM" style="rounded=0;whiteSpace=wrap;html=1;" vertex="1" parent="1">
                    <mxGeometry x="520" y="240" width="60" height="30" as="geometry"/>
                </mxCell>
                <mxCell id="39" value="RIGHT" style="rounded=0;whiteSpace=wrap;html=1;" vertex="1" parent="1">
                    <mxGeometry x="520" y="200" width="40" height="30" as="geometry"/>
                </mxCell>
                <mxCell id="42" value="LEFT" style="rounded=0;whiteSpace=wrap;html=1;" vertex="1" parent="1">
                    <mxGeometry x="380" y="160" width="40" height="30" as="geometry"/>
                </mxCell>
                <mxCell id="44" value="LEFT&lt;br&gt;DRAG" style="rounded=0;whiteSpace=wrap;html=1;" vertex="1" parent="1">
                    <mxGeometry x="320" y="270" width="40" height="40" as="geometry"/>
                </mxCell>
                <mxCell id="45" value="LEFT" style="rounded=0;whiteSpace=wrap;html=1;" vertex="1" parent="1">
                    <mxGeometry x="225" y="200" width="40" height="30" as="geometry"/>
                </mxCell>
                <mxCell id="46" value="BACKWARD" style="rounded=0;whiteSpace=wrap;html=1;" vertex="1" parent="1">
                    <mxGeometry x="210" y="240" width="70" height="30" as="geometry"/>
                </mxCell>
                <mxCell id="47" value="FORWARD" style="rounded=0;whiteSpace=wrap;html=1;" vertex="1" parent="1">
                    <mxGeometry x="210" y="160" width="70" height="30" as="geometry"/>
                </mxCell>
                <mxCell id="52" value="RIGHT&lt;br&gt;DRAG" style="rounded=0;whiteSpace=wrap;html=1;" vertex="1" parent="1">
                    <mxGeometry x="420" y="270" width="40" height="40" as="geometry"/>
                </mxCell>
                <mxCell id="54" value="Led Status" style="swimlane;whiteSpace=wrap;html=1;" vertex="1" parent="1">
                    <mxGeometry x="80" y="360" width="200" height="370" as="geometry"/>
                </mxCell>
                <mxCell id="59" value="L1 -&amp;gt; set type L" style="rounded=0;whiteSpace=wrap;html=1;" vertex="1" parent="54">
                    <mxGeometry x="10" y="40" width="180" height="40" as="geometry"/>
                </mxCell>
                <mxCell id="63" value="set led number:&lt;br&gt;&lt;br&gt;movment side:&lt;br&gt;forward -&amp;gt; 1&lt;br&gt;backward -&amp;gt; 2&lt;br&gt;right -&amp;gt; 3&lt;br&gt;left -&amp;gt; 4&lt;br&gt;&lt;br&gt;looking side:&lt;br&gt;top -&amp;gt; 5" style="rounded=0;whiteSpace=wrap;html=1;" vertex="1" parent="54">
                    <mxGeometry x="10" y="90" width="180" height="160" as="geometry"/>
                </mxCell>
                <mxCell id="66" value="set status:&lt;br&gt;&lt;br&gt;left drag button -&amp;gt; 1&lt;br&gt;right drag button -&amp;gt; 0" style="rounded=0;whiteSpace=wrap;html=1;" vertex="1" parent="54">
                    <mxGeometry x="10" y="260" width="180" height="90" as="geometry"/>
                </mxCell>
                <mxCell id="55" value="Led Bright" style="swimlane;whiteSpace=wrap;html=1;" vertex="1" parent="1">
                    <mxGeometry x="360" y="360" width="200" height="480" as="geometry"/>
                </mxCell>
                <mxCell id="62" value="L2 -&amp;gt; set type B" style="rounded=0;whiteSpace=wrap;html=1;" vertex="1" parent="55">
                    <mxGeometry x="10" y="40" width="180" height="40" as="geometry"/>
                </mxCell>
                <mxCell id="69" value="set status:&lt;br&gt;&lt;br&gt;movment side:&lt;br&gt;forward -&amp;gt; 0&lt;br&gt;backward -&amp;gt; 40&lt;br&gt;right -&amp;gt; 80&lt;br&gt;left -&amp;gt; 120&lt;br&gt;&lt;br&gt;looking side:&lt;br&gt;top -&amp;gt; 160&lt;br&gt;bottom -&amp;gt; 200&lt;br&gt;right -&amp;gt; 225&lt;br&gt;left -&amp;gt; 255" style="rounded=0;whiteSpace=wrap;html=1;" vertex="1" parent="55">
                    <mxGeometry x="10" y="260" width="180" height="210" as="geometry"/>
                </mxCell>
                <mxCell id="70" value="set led number:&lt;br&gt;&lt;br&gt;movment side:&lt;br&gt;forward -&amp;gt; 1&lt;br&gt;backward -&amp;gt; 2&lt;br&gt;right -&amp;gt; 3&lt;br&gt;left -&amp;gt; 4&lt;br&gt;&lt;br&gt;looking side:&lt;br&gt;top -&amp;gt; 5" style="rounded=0;whiteSpace=wrap;html=1;" vertex="1" parent="55">
                    <mxGeometry x="10" y="90" width="180" height="160" as="geometry"/>
                </mxCell>
                <mxCell id="56" value="Servo Dance" style="swimlane;whiteSpace=wrap;html=1;" vertex="1" parent="1">
                    <mxGeometry x="640" y="360" width="200" height="530" as="geometry"/>
                </mxCell>
                <mxCell id="61" value="R1 -&amp;gt; set type S" style="rounded=0;whiteSpace=wrap;html=1;" vertex="1" parent="56">
                    <mxGeometry x="10" y="40" width="180" height="40" as="geometry"/>
                </mxCell>
                <mxCell id="71" value="set servo number:&lt;br&gt;&lt;br&gt;movment side:&lt;br&gt;forward -&amp;gt; 1&lt;br&gt;backward -&amp;gt; 2&lt;br&gt;right -&amp;gt; 3&lt;br&gt;left -&amp;gt; 4&lt;br&gt;&lt;br&gt;looking side:&lt;br&gt;top -&amp;gt; 5" style="rounded=0;whiteSpace=wrap;html=1;" vertex="1" parent="56">
                    <mxGeometry x="10" y="90" width="180" height="160" as="geometry"/>
                </mxCell>
                <mxCell id="72" value="set status:&lt;br&gt;&lt;br&gt;movment side:&lt;br&gt;forward -&amp;gt; 0&lt;br&gt;backward -&amp;gt; 25&lt;br&gt;right -&amp;gt; 50&lt;br&gt;left -&amp;gt; 75&lt;br&gt;&lt;br&gt;looking side:&lt;br&gt;top -&amp;gt; 100&lt;br&gt;bottom -&amp;gt; 125&lt;br&gt;right -&amp;gt; 150&lt;br&gt;left -&amp;gt; 180" style="rounded=0;whiteSpace=wrap;html=1;" vertex="1" parent="56">
                    <mxGeometry x="10" y="260" width="180" height="210" as="geometry"/>
                </mxCell>
                <mxCell id="73" value="left drag button -&amp;gt; -" style="rounded=0;whiteSpace=wrap;html=1;" vertex="1" parent="56">
                    <mxGeometry x="10" y="480" width="180" height="40" as="geometry"/>
                </mxCell>
                <mxCell id="57" value="start -&amp;gt; resets&lt;br&gt;the commands" style="ellipse;shape=cloud;whiteSpace=wrap;html=1;" vertex="1" parent="1">
                    <mxGeometry x="60" y="190" width="130" height="80" as="geometry"/>
                </mxCell>
                <mxCell id="60" value="Data Structure:&lt;br&gt;(type)(compNumber)(Status)" style="ellipse;shape=cloud;whiteSpace=wrap;html=1;" vertex="1" parent="1">
                    <mxGeometry x="590" y="170" width="260" height="150" as="geometry"/>
                </mxCell>
                <mxCell id="64" value="movment side&lt;span style=&quot;color: rgba(0, 0, 0, 0); font-family: monospace; font-size: 0px; text-align: start;&quot;&gt;%3CmxGraphModel%3E%3Croot%3E%3CmxCell%20id%3D%220%22%2F%3E%3CmxCell%20id%3D%221%22%20parent%3D%220%22%2F%3E%3CmxCell%20id%3D%222%22%20value%3D%22L1%20-%26amp%3Bgt%3B%20set%20type%20L%22%20style%3D%22rounded%3D0%3BwhiteSpace%3Dwrap%3Bhtml%3D1%3B%22%20vertex%3D%221%22%20parent%3D%221%22%3E%3CmxGeometry%20x%3D%2290%22%20y%3D%22400%22%20width%3D%22180%22%20height%3D%2240%22%20as%3D%22geometry%22%2F%3E%3C%2FmxCell%3E%3C%2Froot%3E%3C%2FmxGraphModel%3E&lt;/span&gt;" style="rounded=1;whiteSpace=wrap;html=1;" vertex="1" parent="1">
                    <mxGeometry x="70" y="110" width="120" height="60" as="geometry"/>
                </mxCell>
                <mxCell id="65" value="looking side" style="rounded=1;whiteSpace=wrap;html=1;" vertex="1" parent="1">
                    <mxGeometry x="600" y="105" width="120" height="60" as="geometry"/>
                </mxCell>
                <mxCell id="67" value="select -&amp;gt; send&lt;br&gt;data to arduino" style="ellipse;shape=cloud;whiteSpace=wrap;html=1;" vertex="1" parent="1">
                    <mxGeometry x="65" y="270" width="130" height="80" as="geometry"/>
                </mxCell>
            </root>
        </mxGraphModel>
    </diagram>
</mxfile>